<mxfile host="app.diagrams.net" agent="Mozilla/5.0 (Windows NT 10.0; Win64; x64) AppleWebKit/537.36 (KHTML, like Gecko) Chrome/139.0.0.0 Safari/537.36" version="28.1.0">
  <diagram name="Page-1" id="ZABttmxCw7B4WiN3h3Vq">
    <mxGraphModel dx="906" dy="458" grid="1" gridSize="10" guides="1" tooltips="1" connect="1" arrows="1" fold="1" page="1" pageScale="1" pageWidth="850" pageHeight="1100" math="0" shadow="0">
      <root>
        <mxCell id="0" />
        <mxCell id="1" parent="0" />
        <mxCell id="Vd0LW1Wgvyxz7WzORMQr-2" style="edgeStyle=orthogonalEdgeStyle;rounded=0;orthogonalLoop=1;jettySize=auto;html=1;" edge="1" parent="1" source="Vd0LW1Wgvyxz7WzORMQr-1">
          <mxGeometry relative="1" as="geometry">
            <mxPoint x="335" y="140" as="targetPoint" />
          </mxGeometry>
        </mxCell>
        <mxCell id="Vd0LW1Wgvyxz7WzORMQr-1" value="start" style="ellipse;whiteSpace=wrap;html=1;" vertex="1" parent="1">
          <mxGeometry x="280" y="30" width="110" height="70" as="geometry" />
        </mxCell>
        <mxCell id="Vd0LW1Wgvyxz7WzORMQr-8" style="edgeStyle=orthogonalEdgeStyle;rounded=0;orthogonalLoop=1;jettySize=auto;html=1;entryX=0.5;entryY=0;entryDx=0;entryDy=0;" edge="1" parent="1" source="Vd0LW1Wgvyxz7WzORMQr-15" target="Vd0LW1Wgvyxz7WzORMQr-9">
          <mxGeometry relative="1" as="geometry">
            <mxPoint x="335" y="290" as="targetPoint" />
            <mxPoint x="335" y="250" as="sourcePoint" />
          </mxGeometry>
        </mxCell>
        <mxCell id="Vd0LW1Wgvyxz7WzORMQr-32" style="edgeStyle=orthogonalEdgeStyle;rounded=0;orthogonalLoop=1;jettySize=auto;html=1;entryX=1;entryY=0.5;entryDx=0;entryDy=0;" edge="1" parent="1" source="Vd0LW1Wgvyxz7WzORMQr-9" target="Vd0LW1Wgvyxz7WzORMQr-15">
          <mxGeometry relative="1" as="geometry">
            <Array as="points">
              <mxPoint x="430" y="285" />
              <mxPoint x="430" y="170" />
            </Array>
          </mxGeometry>
        </mxCell>
        <mxCell id="Vd0LW1Wgvyxz7WzORMQr-43" value="NO" style="edgeLabel;html=1;align=center;verticalAlign=middle;resizable=0;points=[];" vertex="1" connectable="0" parent="Vd0LW1Wgvyxz7WzORMQr-32">
          <mxGeometry x="0.1677" y="-3" relative="1" as="geometry">
            <mxPoint as="offset" />
          </mxGeometry>
        </mxCell>
        <mxCell id="Vd0LW1Wgvyxz7WzORMQr-9" value="&lt;font style=&quot;font-size: 11px;&quot;&gt;Is current time&lt;/font&gt;&lt;div&gt;&lt;font style=&quot;font-size: 11px;&quot;&gt;=&lt;/font&gt;&lt;/div&gt;&lt;div&gt;&lt;font style=&quot;font-size: 11px;&quot;&gt;feeding time&lt;/font&gt;&lt;/div&gt;" style="rhombus;whiteSpace=wrap;html=1;" vertex="1" parent="1">
          <mxGeometry x="260" y="240" width="150" height="110" as="geometry" />
        </mxCell>
        <mxCell id="Vd0LW1Wgvyxz7WzORMQr-15" value="Read current time" style="rounded=0;whiteSpace=wrap;html=1;" vertex="1" parent="1">
          <mxGeometry x="260" y="140" width="150" height="60" as="geometry" />
        </mxCell>
        <mxCell id="Vd0LW1Wgvyxz7WzORMQr-16" value="" style="edgeStyle=orthogonalEdgeStyle;rounded=0;orthogonalLoop=1;jettySize=auto;html=1;" edge="1" parent="1" source="Vd0LW1Wgvyxz7WzORMQr-9" target="Vd0LW1Wgvyxz7WzORMQr-14">
          <mxGeometry relative="1" as="geometry">
            <mxPoint x="335" y="500" as="targetPoint" />
            <mxPoint x="335" y="330" as="sourcePoint" />
          </mxGeometry>
        </mxCell>
        <mxCell id="Vd0LW1Wgvyxz7WzORMQr-38" value="Yes" style="edgeLabel;html=1;align=center;verticalAlign=middle;resizable=0;points=[];" vertex="1" connectable="0" parent="Vd0LW1Wgvyxz7WzORMQr-16">
          <mxGeometry x="-0.2048" y="-3" relative="1" as="geometry">
            <mxPoint as="offset" />
          </mxGeometry>
        </mxCell>
        <mxCell id="Vd0LW1Wgvyxz7WzORMQr-18" style="edgeStyle=orthogonalEdgeStyle;rounded=0;orthogonalLoop=1;jettySize=auto;html=1;entryX=0.5;entryY=0;entryDx=0;entryDy=0;" edge="1" parent="1" source="Vd0LW1Wgvyxz7WzORMQr-14" target="Vd0LW1Wgvyxz7WzORMQr-17">
          <mxGeometry relative="1" as="geometry" />
        </mxCell>
        <mxCell id="Vd0LW1Wgvyxz7WzORMQr-41" value="Yes" style="edgeLabel;html=1;align=center;verticalAlign=middle;resizable=0;points=[];" vertex="1" connectable="0" parent="Vd0LW1Wgvyxz7WzORMQr-18">
          <mxGeometry x="-0.3333" y="1" relative="1" as="geometry">
            <mxPoint as="offset" />
          </mxGeometry>
        </mxCell>
        <mxCell id="Vd0LW1Wgvyxz7WzORMQr-34" style="edgeStyle=orthogonalEdgeStyle;rounded=0;orthogonalLoop=1;jettySize=auto;html=1;entryX=0;entryY=0.5;entryDx=0;entryDy=0;" edge="1" parent="1" source="Vd0LW1Wgvyxz7WzORMQr-14" target="Vd0LW1Wgvyxz7WzORMQr-35">
          <mxGeometry relative="1" as="geometry">
            <mxPoint x="450" y="460" as="targetPoint" />
            <Array as="points">
              <mxPoint x="430" y="460" />
              <mxPoint x="470" y="461" />
            </Array>
          </mxGeometry>
        </mxCell>
        <mxCell id="Vd0LW1Wgvyxz7WzORMQr-42" value="NO" style="edgeLabel;html=1;align=center;verticalAlign=middle;resizable=0;points=[];" vertex="1" connectable="0" parent="Vd0LW1Wgvyxz7WzORMQr-34">
          <mxGeometry x="-0.21" y="1" relative="1" as="geometry">
            <mxPoint as="offset" />
          </mxGeometry>
        </mxCell>
        <mxCell id="Vd0LW1Wgvyxz7WzORMQr-14" value="&lt;span style=&quot;line-height: 107%;&quot;&gt;&lt;font&gt;Is food&lt;br&gt;bin level&amp;nbsp;&lt;/font&gt;&lt;/span&gt;&lt;div&gt;&lt;span style=&quot;line-height: 107%;&quot;&gt;&lt;font&gt;&amp;gt;=&lt;/font&gt;&lt;/span&gt;&lt;/div&gt;&lt;div&gt;&lt;span style=&quot;line-height: 107%;&quot;&gt;&lt;font&gt;&amp;nbsp;portion size&lt;/font&gt;&lt;/span&gt;&lt;/div&gt;" style="rhombus;whiteSpace=wrap;html=1;" vertex="1" parent="1">
          <mxGeometry x="260" y="400" width="150" height="120" as="geometry" />
        </mxCell>
        <mxCell id="Vd0LW1Wgvyxz7WzORMQr-19" style="edgeStyle=orthogonalEdgeStyle;rounded=0;orthogonalLoop=1;jettySize=auto;html=1;entryX=0.5;entryY=0;entryDx=0;entryDy=0;" edge="1" parent="1" source="Vd0LW1Wgvyxz7WzORMQr-17" target="Vd0LW1Wgvyxz7WzORMQr-20">
          <mxGeometry relative="1" as="geometry">
            <mxPoint x="335" y="660" as="targetPoint" />
          </mxGeometry>
        </mxCell>
        <mxCell id="Vd0LW1Wgvyxz7WzORMQr-17" value="Rotate motor to dispense portion size into the bowl" style="rounded=0;whiteSpace=wrap;html=1;" vertex="1" parent="1">
          <mxGeometry x="260" y="570" width="150" height="60" as="geometry" />
        </mxCell>
        <mxCell id="Vd0LW1Wgvyxz7WzORMQr-23" value="" style="edgeStyle=orthogonalEdgeStyle;rounded=0;orthogonalLoop=1;jettySize=auto;html=1;" edge="1" parent="1" source="Vd0LW1Wgvyxz7WzORMQr-20" target="Vd0LW1Wgvyxz7WzORMQr-22">
          <mxGeometry relative="1" as="geometry" />
        </mxCell>
        <mxCell id="Vd0LW1Wgvyxz7WzORMQr-20" value="wait 10 minutes" style="whiteSpace=wrap;html=1;rounded=0;" vertex="1" parent="1">
          <mxGeometry x="275" y="670" width="120" height="60" as="geometry" />
        </mxCell>
        <mxCell id="Vd0LW1Wgvyxz7WzORMQr-25" value="" style="edgeStyle=orthogonalEdgeStyle;rounded=0;orthogonalLoop=1;jettySize=auto;html=1;" edge="1" parent="1" source="Vd0LW1Wgvyxz7WzORMQr-22" target="Vd0LW1Wgvyxz7WzORMQr-24">
          <mxGeometry relative="1" as="geometry">
            <Array as="points">
              <mxPoint x="335" y="850" />
              <mxPoint x="335" y="850" />
            </Array>
          </mxGeometry>
        </mxCell>
        <mxCell id="Vd0LW1Wgvyxz7WzORMQr-22" value="Read Bowl Weight again" style="whiteSpace=wrap;html=1;rounded=0;" vertex="1" parent="1">
          <mxGeometry x="275" y="760" width="120" height="50" as="geometry" />
        </mxCell>
        <mxCell id="Vd0LW1Wgvyxz7WzORMQr-28" value="" style="edgeStyle=orthogonalEdgeStyle;rounded=0;orthogonalLoop=1;jettySize=auto;html=1;" edge="1" parent="1" source="Vd0LW1Wgvyxz7WzORMQr-24" target="Vd0LW1Wgvyxz7WzORMQr-27">
          <mxGeometry relative="1" as="geometry" />
        </mxCell>
        <mxCell id="Vd0LW1Wgvyxz7WzORMQr-44" value="YES" style="edgeLabel;html=1;align=center;verticalAlign=middle;resizable=0;points=[];" vertex="1" connectable="0" parent="Vd0LW1Wgvyxz7WzORMQr-28">
          <mxGeometry x="-0.2748" y="1" relative="1" as="geometry">
            <mxPoint as="offset" />
          </mxGeometry>
        </mxCell>
        <mxCell id="Vd0LW1Wgvyxz7WzORMQr-30" value="" style="edgeStyle=orthogonalEdgeStyle;rounded=0;orthogonalLoop=1;jettySize=auto;html=1;" edge="1" parent="1" source="Vd0LW1Wgvyxz7WzORMQr-24" target="Vd0LW1Wgvyxz7WzORMQr-29">
          <mxGeometry relative="1" as="geometry" />
        </mxCell>
        <mxCell id="Vd0LW1Wgvyxz7WzORMQr-45" value="NO" style="edgeLabel;html=1;align=center;verticalAlign=middle;resizable=0;points=[];" vertex="1" connectable="0" parent="Vd0LW1Wgvyxz7WzORMQr-30">
          <mxGeometry x="-0.1251" y="-3" relative="1" as="geometry">
            <mxPoint as="offset" />
          </mxGeometry>
        </mxCell>
        <mxCell id="Vd0LW1Wgvyxz7WzORMQr-24" value="&lt;span style=&quot;line-height: 107%;&quot;&gt;&lt;font style=&quot;font-size: 11px;&quot;&gt;Has bowl&amp;nbsp;&lt;/font&gt;&lt;/span&gt;&lt;div&gt;&lt;span style=&quot;line-height: 107%;&quot;&gt;&lt;font style=&quot;font-size: 11px;&quot;&gt;weight increased by&lt;/font&gt;&lt;/span&gt;&lt;/div&gt;&lt;div&gt;&lt;span style=&quot;line-height: 107%;&quot;&gt;&lt;font style=&quot;font-size: 11px;&quot;&gt;&amp;nbsp;&amp;gt;=&lt;/font&gt;&lt;/span&gt;&lt;/div&gt;&lt;div&gt;&lt;span style=&quot;line-height: 107%;&quot;&gt;&lt;font style=&quot;font-size: 11px;&quot;&gt;&amp;nbsp;80% of portion size&lt;/font&gt;&lt;/span&gt;&lt;/div&gt;" style="rhombus;whiteSpace=wrap;html=1;rounded=0;" vertex="1" parent="1">
          <mxGeometry x="240" y="870" width="200" height="130" as="geometry" />
        </mxCell>
        <mxCell id="Vd0LW1Wgvyxz7WzORMQr-31" style="edgeStyle=orthogonalEdgeStyle;rounded=0;orthogonalLoop=1;jettySize=auto;html=1;entryX=0;entryY=0.5;entryDx=0;entryDy=0;" edge="1" parent="1" source="Vd0LW1Wgvyxz7WzORMQr-27" target="Vd0LW1Wgvyxz7WzORMQr-15">
          <mxGeometry relative="1" as="geometry">
            <Array as="points">
              <mxPoint x="170" y="170" />
            </Array>
          </mxGeometry>
        </mxCell>
        <mxCell id="Vd0LW1Wgvyxz7WzORMQr-27" value="&lt;font style=&quot;font-size: 11px;&quot;&gt;log feed and return to time check&lt;/font&gt;" style="whiteSpace=wrap;html=1;rounded=0;" vertex="1" parent="1">
          <mxGeometry x="100" y="980" width="120" height="60" as="geometry" />
        </mxCell>
        <mxCell id="Vd0LW1Wgvyxz7WzORMQr-33" style="edgeStyle=orthogonalEdgeStyle;rounded=0;orthogonalLoop=1;jettySize=auto;html=1;entryX=1;entryY=0.5;entryDx=0;entryDy=0;" edge="1" parent="1" source="Vd0LW1Wgvyxz7WzORMQr-29" target="Vd0LW1Wgvyxz7WzORMQr-15">
          <mxGeometry relative="1" as="geometry">
            <Array as="points">
              <mxPoint x="600" y="170" />
            </Array>
          </mxGeometry>
        </mxCell>
        <mxCell id="Vd0LW1Wgvyxz7WzORMQr-29" value="&lt;font style=&quot;font-size: 11px;&quot;&gt;Alert &quot;Pet not eating&quot; and return to time check&lt;/font&gt;" style="whiteSpace=wrap;html=1;rounded=0;" vertex="1" parent="1">
          <mxGeometry x="530" y="980" width="120" height="60" as="geometry" />
        </mxCell>
        <mxCell id="Vd0LW1Wgvyxz7WzORMQr-47" style="edgeStyle=orthogonalEdgeStyle;rounded=0;orthogonalLoop=1;jettySize=auto;html=1;" edge="1" parent="1" source="Vd0LW1Wgvyxz7WzORMQr-35">
          <mxGeometry relative="1" as="geometry">
            <mxPoint x="530" y="170" as="targetPoint" />
            <Array as="points">
              <mxPoint x="530" y="180" />
              <mxPoint x="530" y="180" />
            </Array>
          </mxGeometry>
        </mxCell>
        <mxCell id="Vd0LW1Wgvyxz7WzORMQr-35" value="&lt;font style=&quot;font-size: 11px;&quot;&gt;alert &quot;Food bin empty&quot; and record event&lt;/font&gt;" style="rounded=0;whiteSpace=wrap;html=1;" vertex="1" parent="1">
          <mxGeometry x="470" y="430" width="120" height="60" as="geometry" />
        </mxCell>
        <mxCell id="Vd0LW1Wgvyxz7WzORMQr-37" value="&lt;div&gt;&lt;br&gt;&lt;/div&gt;" style="text;html=1;align=center;verticalAlign=middle;resizable=0;points=[];autosize=1;strokeColor=none;fillColor=none;" vertex="1" parent="1">
          <mxGeometry x="420" y="218" width="20" height="30" as="geometry" />
        </mxCell>
      </root>
    </mxGraphModel>
  </diagram>
</mxfile>
